<svg xmlns="http://www.w3.org/2000/svg" height="512pt" version="1.1" viewBox="-5 0 512 512.00135" width="512pt">
<g id="surface1">
<path d="M 409.015625 203.507812 C 398.96875 208.414062 388.019531 212.515625 376.367188 215.597656 C 375.503906 215.828125 374.636719 216.042969 373.769531 216.261719 C 348.839844 222.492188 324.492188 223.070312 303.519531 218.941406 C 271.824219 212.683594 247.859375 195.660156 241.347656 171.058594 C 232.753906 138.59375 257.074219 102.582031 298.597656 80.398438 C 303.875 77.589844 308.246094 73.539062 311.425781 68.683594 C 314.597656 63.851562 316.578125 58.214844 317.0625 52.261719 C 318.667969 32.578125 304.585938 15.054688 284.996094 12.457031 C 258.144531 8.878906 219.175781 7.070312 180.699219 17.257812 C 51.441406 51.476562 -25.007812 187.453125 7.453125 317.160156 C 41.265625 452.257812 178.964844 533.164062 313.148438 497.457031 C 423.355469 468.136719 497.109375 367.925781 498.132812 258.628906 C 498.140625 257.753906 498.121094 256.785156 498.0625 255.714844 C 495.652344 211.730469 448.609375 184.175781 409.015625 203.507812 Z M 398.433594 355.386719 C 379.152344 360.492188 359.402344 349.011719 354.304688 329.742188 C 349.199219 310.460938 360.679688 290.710938 379.960938 285.609375 C 399.230469 280.507812 418.980469 291.988281 424.082031 311.269531 C 429.183594 330.535156 417.703125 350.285156 398.433594 355.386719 Z M 398.433594 355.386719 " style=" stroke:none;fill-rule:nonzero;fill:rgb(89.803922%,91.372549%,91.764706%);fill-opacity:1;" />
<path d="M 333.832031 410.308594 C 333.832031 434.660156 314.09375 454.398438 289.742188 454.398438 C 265.390625 454.398438 245.652344 434.660156 245.652344 410.308594 C 245.652344 385.957031 265.390625 366.214844 289.742188 366.214844 C 314.09375 366.214844 333.832031 385.957031 333.832031 410.308594 Z M 333.832031 410.308594 " style=" stroke:none;fill-rule:nonzero;fill:rgb(25.882353%,75.294118%,88.627451%);fill-opacity:1;" />
<path d="M 209.953125 379.625 C 209.953125 403.976562 190.210938 423.714844 165.863281 423.714844 C 141.511719 423.714844 121.769531 403.976562 121.769531 379.625 C 121.769531 355.273438 141.511719 335.53125 165.863281 335.53125 C 190.210938 335.53125 209.953125 355.273438 209.953125 379.625 Z M 209.953125 379.625 " style=" stroke:none;fill-rule:nonzero;fill:rgb(28.627451%,74.117647%,56.470588%);fill-opacity:1;" />
<path d="M 136.667969 272.066406 C 136.667969 296.417969 116.929688 316.15625 92.578125 316.15625 C 68.226562 316.15625 48.484375 296.417969 48.484375 272.066406 C 48.484375 247.714844 68.226562 227.972656 92.578125 227.972656 C 116.929688 227.972656 136.667969 247.714844 136.667969 272.066406 Z M 136.667969 272.066406 " style=" stroke:none;fill-rule:nonzero;fill:rgb(98.039216%,43.921569%,69.803922%);fill-opacity:1;" />
<path d="M 173.476562 147.808594 C 173.476562 172.160156 153.734375 191.902344 129.382812 191.902344 C 105.03125 191.902344 85.292969 172.160156 85.292969 147.808594 C 85.292969 123.457031 105.03125 103.71875 129.382812 103.71875 C 153.734375 103.71875 173.476562 123.457031 173.476562 147.808594 Z M 173.476562 147.808594 " style=" stroke:none;fill-rule:nonzero;fill:rgb(100%,81.568627%,38.039216%);fill-opacity:1;" />
<path d="M 471.675781 200.679688 L 464.261719 295.773438 L 448.519531 497.554688 C 448.207031 501.628906 445.476562 505.25 441.289062 507.851562 C 437.109375 510.453125 431.441406 512.027344 425.246094 512 C 412.859375 511.949219 402.671875 505.503906 402.109375 497.359375 L 388.066406 295.453125 L 381.449219 200.300781 Z M 471.675781 200.679688 " style=" stroke:none;fill-rule:nonzero;fill:rgb(100%,81.568627%,38.039216%);fill-opacity:1;" />
<path d="M 436.433594 510.15625 C 428.273438 507.957031 422.40625 502.785156 421.976562 496.65625 L 406.894531 200.410156 L 381.449219 200.300781 L 388.070312 295.449219 L 402.109375 497.355469 C 402.671875 505.5 412.863281 511.945312 425.246094 511.996094 C 429.289062 512.015625 433.117188 511.351562 436.433594 510.15625 Z M 436.433594 510.15625 " style=" stroke:none;fill-rule:nonzero;fill:rgb(93.72549%,53.72549%,18.823529%);fill-opacity:1;" />
<path d="M 464.261719 295.773438 L 471.675781 200.679688 L 406.894531 200.410156 L 381.445312 200.300781 L 388.070312 295.453125 L 411.738281 295.550781 Z M 464.261719 295.773438 " style=" stroke:none;fill-rule:nonzero;fill:rgb(24.313725%,29.411765%,36.078431%);fill-opacity:1;" />
<path d="M 381.445312 200.304688 C 340.15625 181.746094 335.820312 119.675781 372.746094 83.058594 C 409.671875 46.441406 425.851562 24.734375 425.953125 0 C 425.953125 0 559.035156 136.292969 471.675781 200.683594 Z M 381.445312 200.304688 " style=" stroke:none;fill-rule:nonzero;fill:rgb(98.039216%,43.921569%,69.803922%);fill-opacity:1;" />
<path d="M 418.804688 200.457031 L 381.445312 200.300781 C 340.160156 181.738281 335.820312 119.667969 372.746094 83.066406 C 409.675781 46.445312 425.851562 24.730469 425.953125 0 C 439.316406 73.640625 365.203125 117.253906 418.804688 200.457031 Z M 418.804688 200.457031 " style=" stroke:none;fill-rule:nonzero;fill:rgb(86.666667%,12.941176%,35.686275%);fill-opacity:1;" />
<path d="M 411.738281 295.550781 L 406.894531 200.410156 L 381.445312 200.300781 L 388.070312 295.453125 Z M 411.738281 295.550781 " style=" stroke:none;fill-rule:nonzero;fill:rgb(14.117647%,19.215686%,25.882353%);fill-opacity:1;" />
</g>
</svg>